G04 EAGLE Gerber RS-274X export*
G75*
%MOMM*%
%FSLAX34Y34*%
%LPD*%
%INSolderpaste Bottom*%
%IPPOS*%
%AMOC8*
5,1,8,0,0,1.08239X$1,22.5*%
G01*
%ADD10C,1.270000*%
%ADD11C,1.778000*%


D10*
X920863Y278600D02*
X920863Y253200D01*
X908163Y253200D01*
X908163Y278600D01*
X920863Y278600D01*
X920863Y265265D02*
X908163Y265265D01*
X908163Y277330D02*
X920863Y277330D01*
X866850Y278600D02*
X866850Y253200D01*
X854150Y253200D01*
X854150Y278600D01*
X866850Y278600D01*
X866850Y265265D02*
X854150Y265265D01*
X854150Y277330D02*
X866850Y277330D01*
D11*
X223300Y743600D03*
X197900Y743600D03*
X57300Y1002700D03*
X57300Y977300D03*
X57300Y951900D03*
X57300Y682700D03*
X57300Y657300D03*
X57300Y631900D03*
X57300Y842700D03*
X57300Y817300D03*
X57300Y791900D03*
X57300Y762700D03*
X57300Y737300D03*
X57300Y711900D03*
X57300Y922700D03*
X57300Y897300D03*
X57300Y871900D03*
X57300Y602700D03*
X57300Y577300D03*
X57300Y551900D03*
X57300Y522700D03*
X57300Y497300D03*
X57300Y471900D03*
X57300Y442700D03*
X57300Y417300D03*
X57300Y391900D03*
M02*
