M48
;GenerationSoftware,Autodesk,EAGLE,9.6.0*%
;CreationDate,2020-12-07T10:55:26Z*%
FMAT,2
ICI,OFF
METRIC,TZ,000.000
T5C0.350
T4C0.730
T3C0.813
T2C0.889
T1C1.118
%
G90
M71
T1
X13970Y48840
X13970Y51380
X13970Y53920
X21590Y53920
X21590Y51380
X21590Y48840
X21590Y46300
X21590Y43760
X21590Y41220
X21590Y38680
X21590Y36140
X13970Y41220
X13970Y43760
X13970Y36140
X13970Y46300
X13970Y38680
T2
X80890Y35570
X80890Y38110
X96130Y53350
X80890Y40650
X80890Y45730
X80890Y48270
X80890Y50810
X80890Y53350
X80890Y55890
X80890Y58430
X80890Y60970
X80890Y63510
X80890Y66050
X80890Y43190
X96130Y66050
X96130Y63510
X96130Y60970
X80890Y33030
X96130Y55890
X96130Y33030
X96130Y50810
X96130Y35570
X96130Y58430
X96130Y45730
X96130Y38110
X96130Y40650
X96130Y43190
X96130Y48270
T3
X74920Y80380
X77460Y80380
X80000Y80380
X82540Y80380
X85080Y80380
X85080Y95620
X82540Y95620
X80000Y95620
X77460Y95620
X74920Y95620
X12000Y72840
X12000Y67760
X12000Y60780
X12000Y65860
X27920Y80380
X30460Y80380
X24810Y62190
X24810Y64730
X17190Y62190
X17190Y64730
X24810Y69810
X24810Y67270
X17190Y67270
X17190Y69810
X20000Y80380
X64460Y95620
X67000Y95620
X69540Y95620
X72080Y95620
X72080Y80380
X69540Y80380
X67000Y80380
X64460Y80380
X35540Y80380
X38080Y80380
X38080Y95620
X35540Y95620
X33000Y95620
X30460Y95620
X27920Y95620
X14920Y80380
X33000Y80380
X17460Y80380
X22540Y80380
X61920Y80380
X25080Y80380
X25080Y95620
X22540Y95620
X20000Y95620
X17460Y95620
X14920Y95620
X76190Y18710
X76190Y16170
X83810Y18710
X83810Y16170
X76190Y11090
X76190Y13630
X83810Y13630
X83810Y11090
X88480Y6000
X85940Y6000
X38270Y33300
X35730Y33300
X44770Y33300
X42230Y33300
X51270Y33300
X48730Y33300
X57770Y33300
X55230Y33300
X64270Y33300
X61730Y33300
X38420Y62620
X40960Y62620
X43500Y62620
X46040Y62620
X48580Y62620
X48580Y47380
X46040Y47380
X43500Y47380
X40960Y47380
X38420Y47380
X51420Y62620
X53960Y62620
X56500Y62620
X59040Y62620
X61580Y62620
X61580Y47380
X59040Y47380
X56500Y47380
X53960Y47380
X51420Y47380
X61920Y95620
T4
X46030Y91620
X46030Y89080
X46030Y86540
X46030Y84000
X46030Y81460
X46030Y78920
X46030Y76380
X53970Y76380
X53970Y78920
X53970Y81460
X53970Y84000
X53970Y86540
X53970Y89080
X53970Y91620
X5380Y16190
X7920Y16190
X10460Y16190
X13000Y16190
X15540Y16190
X18080Y16190
X20620Y16190
X20620Y23810
X18080Y23810
X15540Y23810
X13000Y23810
X10460Y23810
X7920Y23810
X5380Y23810
X41380Y4690
X43920Y4690
X46460Y4690
X49000Y4690
X51540Y4690
X54080Y4690
X56620Y4690
X56620Y12310
X54080Y12310
X51540Y12310
X49000Y12310
X46460Y12310
X43920Y12310
X41380Y12310
X32960Y23970
X27880Y16030
X30420Y16030
X32960Y16030
X35500Y16030
X38040Y16030
X40580Y16030
X43120Y16030
X43120Y23970
X40580Y23970
X38040Y23970
X35500Y23970
X30420Y23970
X27880Y23970
X13380Y4530
X15920Y4530
X18460Y4530
X21000Y4530
X23540Y4530
X26080Y4530
X28620Y4530
X28620Y12470
X26080Y12470
X23540Y12470
X21000Y12470
X18460Y12470
X15920Y12470
X13380Y12470
X65110Y115970
X50380Y16030
X52920Y16030
X55460Y16030
X58000Y16030
X60540Y16030
X63080Y16030
X65620Y16030
X65620Y23970
X63080Y23970
X60540Y23970
X58000Y23970
X55460Y23970
X52920Y23970
X50380Y23970
X34890Y115970
X32350Y115970
X29810Y115970
X27270Y115970
X24730Y115970
X22190Y115970
X19650Y115970
X17110Y115970
X17110Y108030
X19650Y108030
X22190Y108030
X24730Y108030
X27270Y108030
X29810Y108030
X32350Y108030
X34890Y108030
X58890Y115970
X56350Y115970
X53810Y115970
X51270Y115970
X48730Y115970
X46190Y115970
X43650Y115970
X41110Y115970
X41110Y108030
X43650Y108030
X46190Y108030
X48730Y108030
X51270Y108030
X53810Y108030
X56350Y108030
X58890Y108030
X82890Y115970
X80350Y115970
X77810Y115970
X75270Y115970
X72730Y115970
X70190Y115970
X67650Y115970
X65110Y108030
X67650Y108030
X70190Y108030
X72730Y108030
X75270Y108030
X77810Y108030
X80350Y108030
X82890Y108030
T5
X98000Y12000
X98000Y15000
X37000Y42122
X43500Y42422
X50000Y42422
X59600Y40422
X44900Y97800
X41300Y101500
X39200Y103400
X35100Y103400
X48800Y19815
X50400Y21400
X4700Y43000
X5000Y53800
X72000Y72000
X4600Y32800
X2800Y34100
X4200Y89700
X4100Y97700
X7300Y81700
X7200Y73700
X4200Y65700
X4600Y58800
X4300Y49800
X4300Y41700
X10500Y40500
X35400Y7900
X38605Y70495
X44700Y70900
X44700Y73700
X88800Y18700
X48800Y112300
X46200Y112900
X48800Y104500
X50500Y103000
X15500Y19500
X10000Y19500
X9000Y7500
X70400Y5600
X57600Y53000
X48500Y53100
X22900Y11000
X94000Y77500
X86500Y86000
X42000Y56500
X73285Y39842
X62000Y52500
X65000Y90000
X74000Y43000
X65500Y91000
X32000Y114000
X58000Y114000
X76400Y71900
X4500Y72420
X12900Y85000
X25500Y101500
X37000Y107000
X78500Y61500
X77500Y99500
X67000Y26500
X9285Y43000
X9285Y80800
X65000Y102500
X69500Y102500
X73500Y63117
X64500Y27000
X64500Y22000
X12500Y58000
X21500Y58000
X30945Y64555
X7300Y79200
X12100Y83000
X8500Y38000
X76000Y50000
X55715Y89000
X52500Y96500
X45000Y101000
X40500Y105500
X6155Y53690
X1600Y94100
X6055Y37555
X60000Y111500
X4500Y61960
X3500Y105000
X4500Y36500
X73000Y52000
X59500Y81000
X58285Y97000
X33000Y103500
X72500Y47000
X27000Y29000
X7000Y88300
X3900Y35200
X6800Y96300
X1800Y35500
X57500Y87500
X26600Y60500
X66000Y65500
X16000Y74500
X44100Y19800
X41800Y20000
X35700Y19300
X57500Y59500
X81000Y98285
X81500Y87000
X75000Y93000
X49000Y57500
X73000Y99854
X26000Y100000
X85500Y84000
X83000Y85000
X52500Y58500
X75000Y99069
X28500Y99000
X84055Y77945
X82500Y83500
X77000Y84500
X50500Y69500
X49500Y51500
X73000Y84500
X26500Y84285
X77500Y74500
X55500Y70500
X52000Y50500
X75500Y83500
X28500Y83500
X60000Y58500
X60500Y65500
X69500Y77000
X74478Y33100
X44500Y54000
X97500Y19500
X97500Y22500
X76500Y6100
X72800Y17500
X90150Y10195
X46000Y14500
X35900Y10900
X43500Y10500
X38500Y44500
X33000Y83500
X20000Y72000
X94000Y74200
X34000Y98132
M30